<?xml version="1.0" encoding="UTF-8" standalone="no"?>
<!-- Created with Inkscape (http://www.inkscape.org/) -->

<svg
   xmlns:dc="http://purl.org/dc/elements/1.1/"
   xmlns:cc="http://creativecommons.org/ns#"
   xmlns:rdf="http://www.w3.org/1999/02/22-rdf-syntax-ns#"
   xmlns:svg="http://www.w3.org/2000/svg"
   xmlns="http://www.w3.org/2000/svg"
   version="1.1"
   width="64"
   height="64"
   id="svg14777">
  <defs
     id="defs14779" />
  <metadata
     id="metadata14782">
    <rdf:RDF>
      <cc:Work
         rdf:about="">
        <dc:format>image/svg+xml</dc:format>
        <dc:type
           rdf:resource="http://purl.org/dc/dcmitype/StillImage" />
        <dc:title></dc:title>
      </cc:Work>
    </rdf:RDF>
  </metadata>
  <g
     id="layer1">
    <g
       transform="matrix(2.3653104,0,0,-2.3653104,41.191348,29.181859)"
       id="g196">
      <path
         d="m 0,0 -7.592,0 0,0.004 c -2.317,0 -4.484,-1.929 -4.195,-4.266 l 0.599,-4.395 c 0.466,-2.331 1.879,-4.196 4.197,-4.196 l 6.392,0 c 2.316,0 3.729,1.932 4.194,4.263 l 0.601,4.395 C 4.494,-1.901 2.318,0 0,0"
         id="path198"
         style="fill:#4a494a;fill-opacity:1;fill-rule:nonzero;stroke:none" />
    </g>
    <g
       transform="matrix(2.3653104,0,0,-2.3653104,42.300205,15.872484)"
       id="g200">
      <path
         d="m 0,0 c 0,-2.354 -1.909,-4.264 -4.265,-4.264 -2.355,0 -4.264,1.91 -4.264,4.264 0,2.355 1.909,4.265 4.264,4.265 C -1.909,4.265 0,2.355 0,0"
         id="path202"
         style="fill:#4a494a;fill-opacity:1;fill-rule:nonzero;stroke:none" />
    </g>
  </g>
</svg>
